<svg xmlns="http://www.w3.org/2000/svg" viewBox="0 0 100 140" width="100" height="140">
  <defs>
    <linearGradient id="dt" x1="0" y1="0" x2="1" y2="1"><stop offset="0%" stop-color="#00D9FF"/><stop offset="50%" stop-color="#2563eb"/><stop offset="100%" stop-color="#7c3aed"/></linearGradient>
    <linearGradient id="dcl" x1="0" y1="1" x2="1" y2="0"><stop offset="0%" stop-color="#1a4b8c"/><stop offset="60%" stop-color="#00D9FF"/><stop offset="100%" stop-color="#38bdf8"/></linearGradient>
    <linearGradient id="dcr" x1="1" y1="1" x2="0" y2="0"><stop offset="0%" stop-color="#1e3a5f"/><stop offset="50%" stop-color="#2563eb"/><stop offset="100%" stop-color="#7c3aed"/></linearGradient>
    <linearGradient id="dcm" x1="0.5" y1="1" x2="0.5" y2="0"><stop offset="0%" stop-color="#0f1f3d"/><stop offset="100%" stop-color="#00D9FF"/></linearGradient>
    <linearGradient id="dg" x1="0" y1="0" x2="0" y2="1"><stop offset="0%" stop-color="#7c3aed"/><stop offset="50%" stop-color="#2563eb"/><stop offset="100%" stop-color="#00D9FF"/></linearGradient>
    <linearGradient id="dpl" x1="0" y1="0" x2="1" y2="1"><stop offset="0%" stop-color="#1a4b8c"/><stop offset="50%" stop-color="#6366f1"/><stop offset="100%" stop-color="#d946ef"/></linearGradient>
    <linearGradient id="dpr" x1="1" y1="0" x2="0" y2="1"><stop offset="0%" stop-color="#0f1f3d"/><stop offset="50%" stop-color="#7c3aed"/><stop offset="100%" stop-color="#ec4899"/></linearGradient>
    <linearGradient id="dpm" x1="0.5" y1="0" x2="0.5" y2="1"><stop offset="0%" stop-color="#2563eb"/><stop offset="60%" stop-color="#1a4b8c"/><stop offset="100%" stop-color="#0a1628"/></linearGradient>
    <linearGradient id="dbt" x1="0.5" y1="0" x2="0.5" y2="1"><stop offset="0%" stop-color="#6366f1"/><stop offset="100%" stop-color="#d946ef"/></linearGradient>
    <radialGradient id="dglow" cx="50%" cy="40%" r="60%"><stop offset="0%" stop-color="#00D9FF" stop-opacity="0.3"/><stop offset="50%" stop-color="#7c3aed" stop-opacity="0.1"/><stop offset="100%" stop-color="#050816" stop-opacity="0"/></radialGradient>
    <radialGradient id="dhalo" cx="50%" cy="45%" r="70%"><stop offset="0%" stop-color="#00D9FF" stop-opacity="0.25"/><stop offset="40%" stop-color="#7c3aed" stop-opacity="0.12"/><stop offset="70%" stop-color="#2563eb" stop-opacity="0.05"/><stop offset="100%" stop-color="transparent" stop-opacity="0"/></radialGradient>
    <filter id="shine"><feGaussianBlur in="SourceGraphic" stdDeviation="0.5"/></filter>
  </defs>
  <circle cx="50" cy="70" r="55" fill="url(#dhalo)" opacity="0.3"/>
  <ellipse cx="50" cy="65" rx="20" ry="25" fill="url(#dglow)" opacity="0.4"/>
  <polygon points="50,5 30,30 50,40" fill="url(#dcl)" opacity="0.9"/>
  <polygon points="50,5 70,30 50,40" fill="url(#dcr)" opacity="0.85"/>
  <polygon points="30,30 50,40 50,40 35,45" fill="url(#dcm)" opacity="0.7"/>
  <polygon points="12,40 30,30 35,45 15,48" fill="url(#dcl)" opacity="0.75"/>
  <polygon points="88,40 70,30 65,45 85,48" fill="url(#dcr)" opacity="0.7"/>
  <polygon points="50,5 40,20 50,30 60,20" fill="url(#dcm)" opacity="0.6"/>
  <polygon points="15,48 35,45 50,48 65,45 85,48 88,44 88,52 85,55 65,53 50,55 35,53 15,55 12,52 12,44" fill="url(#dg)" opacity="0.8"/>
  <polygon points="15,52 35,53 50,115 50,130" fill="url(#dpl)" opacity="0.85"/>
  <polygon points="85,52 65,53 50,115 50,130" fill="url(#dpr)" opacity="0.8"/>
  <polygon points="35,53 50,55 50,115 50,115" fill="url(#dpm)" opacity="0.75"/>
  <polygon points="65,53 50,55 50,115 50,115" fill="url(#dpm)" opacity="0.7"/>
  <polygon points="15,55 35,53 50,130 50,130" fill="url(#dpl)" opacity="0.6"/>
  <polygon points="85,55 65,53 50,130 50,130" fill="url(#dpr)" opacity="0.55"/>
  <polygon points="45,125 50,135 55,125 50,130" fill="url(#dbt)" opacity="0.9"/>
  <polygon points="50,5 44,15 50,22 56,15" fill="white" opacity="0.5" filter="url(#shine)"/>
  <polygon points="15,48 18,44 22,46 20,52" fill="white" opacity="0.25" filter="url(#shine)"/>
  <polygon points="85,48 82,44 78,46 80,52" fill="white" opacity="0.2" filter="url(#shine)"/>
  <polygon points="48,128 50,133 52,128 50,130" fill="white" opacity="0.35" filter="url(#shine)"/>
</svg>
